<?xml version="1.0" encoding="utf-8"?>
<!-- Generator: Adobe Illustrator 29.8.2, SVG Export Plug-In . SVG Version: 9.03 Build 0)  -->
<svg version="1.0" id="Layer_1" xmlns="http://www.w3.org/2000/svg" xmlns:xlink="http://www.w3.org/1999/xlink" x="0px" y="0px"
	 viewBox="0 0 1123.49 374.68" style="enable-background:new 0 0 1123.49 374.68;" xml:space="preserve">
<style type="text/css">
	.st0{clip-path:url(#SVGID_00000076603640963173835860000015439735574817961604_);}
	.st1{clip-path:url(#SVGID_00000001648361467677660910000002045931018903501466_);}
	.st2{clip-path:url(#SVGID_00000064339825244143298150000013572586361045748403_);}
	.st3{fill:#ED1C24;}
	.st4{clip-path:url(#SVGID_00000164479740845466549000000005827299562514144434_);}
	.st5{clip-path:url(#SVGID_00000075159712529992805830000007232013171884774053_);}
	/* GitHub-optimized colors */
	path:not(.st3){fill:#24292f;}
	@media (prefers-color-scheme: dark) {
		path:not(.st3){fill:#c9d1d9;}
	}
</style>
<g>
	<defs>
		<rect id="SVGID_1_" x="450.04" y="13.99" width="652.32" height="334.46"/>
	</defs>
	<clipPath id="SVGID_00000019656040202520244060000001165096171179827342_">
		<use xlink:href="#SVGID_1_"  style="overflow:visible;"/>
	</clipPath>
	<g style="clip-path:url(#SVGID_00000019656040202520244060000001165096171179827342_);">
		<g transform="matrix(1, 0, 0, 1, 160, 145)">
			<g>
				<defs>
					<rect id="SVGID_00000124162962091753175690000005627983698209132211_" x="289.2" y="-131.39" width="654.69" height="335.25"/>
				</defs>
				<clipPath id="SVGID_00000099647143750574061770000003037741274509268398_">
					<use xlink:href="#SVGID_00000124162962091753175690000005627983698209132211_"  style="overflow:visible;"/>
				</clipPath>
				<g style="clip-path:url(#SVGID_00000099647143750574061770000003037741274509268398_);">
					<g>
						<defs>
							
								<rect id="SVGID_00000025417616182736403500000000514970868159775409_" x="290.04" y="-131.01" width="652.28" height="334.46"/>
						</defs>
						<clipPath id="SVGID_00000085936425119769646480000010277341051178676382_">
							<use xlink:href="#SVGID_00000025417616182736403500000000514970868159775409_"  style="overflow:visible;"/>
						</clipPath>
						<g style="clip-path:url(#SVGID_00000085936425119769646480000010277341051178676382_);">
							<path class="st3" d="M753.57,203.48c3.62,0,4.5-4.65,5.02-7.44c0.58-3.03,1.14-7.4,1.72-13.38
								c1.09-11.09,2.12-26.56,3.22-42.94c1.59-23.52,3.39-50.18,5.78-71.45c1.3-11.51,2.63-20.26,4.08-26.76
								c1.69-7.6,3.15-10.16,3.77-10.95c0.46,0.4,1.45,1.56,2.74,4.9c1.38,3.57,2.62,8.29,3.81,12.87
								c3.03,11.64,5.41,20.83,11.64,21.21c2.25,0.14,4.09-1.21,5.45-4.02c0.79-1.61,1.46-3.66,2.21-6.02
								c2.84-8.76,5.73-16.02,12.44-16.1c5.77-0.06,23.23,0,23.4,0.01h102.93V36.9H838.85c-0.16,0-17.67-0.06-23.49,0
								c-5.34,0.05-9.75,2.68-13.1,7.81c-2.61,3.98-4.19,8.87-5.46,12.79c-0.49,1.52-1.1,3.41-1.63,4.67
								c-0.47-0.7-1.11-1.93-1.88-4.04c-1.16-3.2-2.2-7.2-3.3-11.44c-3.15-12.14-5.88-22.62-12.92-22.86c-0.06,0-0.12,0-0.19,0
								c-5,0-7.39,6.49-9.04,12.85c-1.66,6.34-3.16,15.28-4.61,27.37c-2.62,21.97-4.53,50.27-6.21,75.23
								c-1,14.94-1.95,29.05-2.92,39.73c-0.2,2.16-0.4,4.08-0.57,5.78c-1.03-8.09-2.38-20.85-4.15-40.89
								c-2.67-30.37-5.68-70.26-8.59-108.84c-2.98-39.45-6.05-80.23-8.75-110.59c-1.46-16.37-2.69-28.53-3.79-37.15
								c-1.84-14.64-2.87-16.36-4.35-17.44c-0.84-0.62-1.89-0.84-2.89-0.61c-2.62,0.61-3.53,3.32-4.5,8.81
								c-0.64,3.71-1.3,8.99-2.01,16.17c-1.33,13.36-2.68,31.64-4.13,51c-1.91,25.85-4.09,55.14-6.63,78.19
								c-1.37,12.47-2.72,21.97-4.1,29.03c-1.37,6.98-2.55,10.17-3.25,11.58c-0.54-1.05-1.36-3.34-2.06-8.23
								c-0.8-5.49-1.22-12.5-1.63-19.29c-0.44-7.59-0.88-14.75-1.79-20.36c-0.58-3.48-1.91-11.65-7.57-11.93
								c-1.85-0.09-5.23,0.46-6.97,5.13c-0.86,2.31-1.24,5.28-1.62,8.41c-0.57,4.52-1.21,9.65-3.36,13.39
								c-1.42,2.46-4.15,5.73-11.49,5.73c-0.05,0-0.1,0-0.16,0C347,34.87,291.14,34.45,290.61,34.44l-0.05,6.54
								c0.53,0,56.39,0.43,369.15,2.46c8.04,0.05,13.87-2.98,17.33-9.01c2.8-4.88,3.56-10.96,4.18-15.84
								c0.31-2.46,0.8-6.41,1.54-7.61c0.44,0.77,1.28,2.82,2,8.13c0.68,5.04,1.07,11.53,1.45,17.8
								c1.15,19.25,2.06,34.44,10.49,34.44c4.46,0,6.65-5.55,8.55-13.87c1.56-6.82,3.04-16.47,4.55-29.48
								c2.74-23.77,5.05-54.85,7.09-82.28c1.33-18.04,2.61-35.07,3.84-48.03c0.37-3.93,0.72-7.19,1.04-9.91
								c1,7.97,2.34,20.52,4.05,40.15c2.63,29.95,5.61,69.43,8.49,107.6c3.05,40.49,6.2,82.33,8.98,113.29
								c1.51,16.7,2.77,28.98,3.89,37.55c0.62,4.78,1.17,8.3,1.7,10.79c0.57,2.62,1.33,6.2,4.52,6.33
								C753.46,203.48,753.51,203.48,753.57,203.48"/>
						</g>
					</g>
				</g>
			</g>
		</g>
	</g>
</g>
<g transform="matrix(1, 0, 0, 1, 19, 126)">
	<g>
		<defs>
			<rect id="SVGID_00000009551104566071118990000012747942524178748857_" x="-13.76" y="-166.51" width="401.67" height="243.53"/>
		</defs>
		<clipPath id="SVGID_00000003069262630014396810000015606246586815936434_">
			<use xlink:href="#SVGID_00000009551104566071118990000012747942524178748857_"  style="overflow:visible;"/>
		</clipPath>
		<g style="clip-path:url(#SVGID_00000003069262630014396810000015606246586815936434_);">
			<g>
				<g transform="translate(0.960082, 61.139544)">
					<g>
						<path d="M40.11-130.49c4.94,0,9.49,0.52,13.64,1.53c4.15,1.03,7.56,2.32,10.23,3.9c3.36,1.91,5.99,4.5,7.91,7.76
							c1.94,3.24,2.92,6.89,2.92,10.97c0,5.08-1.63,9.28-4.89,12.6c-3.24,3.3-7.39,4.94-12.45,4.94c-5.18,0-9.24-1.46-12.21-4.4
							c-2.94-2.97-4.4-6.92-4.4-11.86c0-4.31,1.41-8.12,4.25-11.42c2.83-3.32,6.35-5.53,10.58-6.62c-1.82-1.45-4.24-2.17-7.26-2.17
							c-7.68,0-13.08,4.13-16.21,12.35c-3.14,8.24-4.69,18.03-4.69,29.35c0,11.54,2.15,19.77,6.47,24.71
							c4.35,4.94,9.7,7.41,16.06,7.41c8.8,0,16.07-4.03,21.84-12.11l3.06,1.09c-2.64,8.44-7.12,15.67-13.44,21.69
							c-6.3,6-14.38,8.99-24.26,8.99c-13.12,0-23.65-3.9-31.58-11.71C-2.28-51.3-6.24-63.83-6.24-81.03
							c0-16.51,4.23-28.87,12.7-37.11C14.96-126.37,26.17-130.49,40.11-130.49z"/>
					</g>
				</g>
			</g>
			<g>
				<g transform="translate(29.672303, 61.139544)">
					<g>
						<path d="M79.47-175.46c6.25,0,11.09,1.33,14.53,4c3.46,2.64,5.19,6.5,5.19,11.56c0,5.04-1.73,8.9-5.19,11.56
							c-3.43,2.64-8.28,3.95-14.53,3.95c-6.36,0-11.24-1.31-14.63-3.95c-3.36-2.67-5.04-6.52-5.04-11.56
							c0-5.07,1.68-8.92,5.04-11.56C68.23-174.13,73.11-175.46,79.47-175.46z M96.82-51.08c0,4.94,0.74,8.35,2.22,10.23
							c1.51,1.85,4.13,2.77,7.86,2.77v3.81c-12.98-0.49-21.52-0.74-25.6-0.74c-4.13,0-13.15,0.25-27.08,0.74v-3.81
							c3.72,0,6.33-0.91,7.81-2.77c1.51-1.88,2.27-5.29,2.27-10.23v-57.23c0-5.53-0.77-9.55-2.27-12.06
							c-1.48-2.53-4.09-3.81-7.81-3.81v-3.81c3.85,0.37,7.57,0.54,11.17,0.54c12.52,0,22.99-0.84,31.43-2.52V-51.08z"/>
					</g>
				</g>
			</g>
			<g>
				<g transform="translate(48.509345, 61.139544)">
					<g>
						<path d="M171.31-127.23c6.84,0,11.48-0.25,13.89-0.74v3.81c-2.55,0.83-4.87,2.57-6.97,5.24c-2.08,2.64-4.03,6.72-5.83,12.26
							l-24.36,72.4c-1.95-0.22-4.84-0.35-8.7-0.35c-3.95,0-6.91,0.12-8.85,0.35l-31.38-79.81c-2.67-6.72-6.16-10.08-10.48-10.08
							v-3.81c9.49,0.73,20.19,1.09,32.12,1.09c6.03,0,13.85-0.36,23.47-1.09v3.81c-3.73,0-6.41,0.25-8.06,0.74
							c-1.62,0.47-2.42,1.72-2.42,3.76c0,0.37,0.11,1.16,0.35,2.37l19.72,54.66l8.3-24.91c2.27-6.98,3.41-13.11,3.41-18.38
							c0-5.66-1.21-10.06-3.61-13.19c-2.41-3.13-5.61-4.81-9.59-5.04v-3.81C156.81-127.48,163.13-127.23,171.31-127.23z"/>
					</g>
				</g>
			</g>
			<g>
				<g transform="translate(78.191968, 61.139544)">
					<g>
						<path d="M184.41-175.46c6.25,0,11.09,1.33,14.53,4c3.46,2.64,5.19,6.5,5.19,11.56c0,5.04-1.73,8.9-5.19,11.56
							c-3.43,2.64-8.28,3.95-14.53,3.95c-6.36,0-11.24-1.31-14.63-3.95c-3.36-2.67-5.04-6.52-5.04-11.56
							c0-5.07,1.68-8.92,5.04-11.56C173.17-174.13,178.05-175.46,184.41-175.46z M201.76-51.08c0,4.94,0.74,8.35,2.22,10.23
							c1.51,1.85,4.13,2.77,7.86,2.77v3.81c-12.98-0.49-21.52-0.74-25.6-0.74c-4.13,0-13.15,0.25-27.08,0.74v-3.81
							c3.72,0,6.33-0.91,7.81-2.77c1.51-1.88,2.27-5.29,2.27-10.23v-57.23c0-5.53-0.77-9.55-2.27-12.06
							c-1.48-2.53-4.09-3.81-7.81-3.81v-3.81c3.85,0.37,7.57,0.54,11.17,0.54c12.52,0,22.99-0.84,31.43-2.52V-51.08z"/>
					</g>
				</g>
			</g>
			<g>
				<g transform="translate(97.02901, 61.139544)">
					<g>
						<path d="M247.88-130.49c4.94,0,9.49,0.52,13.64,1.53c4.15,1.03,7.56,2.32,10.23,3.9c3.36,1.91,5.99,4.5,7.91,7.76
							c1.94,3.24,2.92,6.89,2.92,10.97c0,5.08-1.63,9.28-4.89,12.6c-3.24,3.3-7.39,4.94-12.45,4.94c-5.18,0-9.24-1.46-12.21-4.4
							c-2.94-2.97-4.4-6.92-4.4-11.86c0-4.31,1.41-8.12,4.25-11.42c2.83-3.32,6.35-5.53,10.58-6.62c-1.82-1.45-4.24-2.17-7.26-2.17
							c-7.68,0-13.08,4.13-16.21,12.35c-3.14,8.24-4.69,18.03-4.69,29.35c0,11.54,2.15,19.77,6.47,24.71
							c4.35,4.94,9.7,7.41,16.06,7.41c8.8,0,16.07-4.03,21.84-12.11l3.06,1.09c-2.64,8.44-7.12,15.67-13.44,21.69
							c-6.3,6-14.38,8.99-24.26,8.99c-13.12,0-23.65-3.9-31.58-11.71c-7.94-7.83-11.91-20.36-11.91-37.56
							c0-16.51,4.23-28.87,12.7-37.11C222.73-126.37,233.95-130.49,247.88-130.49z"/>
					</g>
				</g>
			</g>
		</g>
	</g>
</g>
<g transform="matrix(1, 0, 0, 1, 142, 126)">
	<g>
		<defs>
			<rect id="SVGID_00000067209476219103138910000006827604186354530971_" x="252.26" y="-166.51" width="417.48" height="243.53"/>
		</defs>
		<clipPath id="SVGID_00000163768317140017336000000014618843662661481913_">
			<use xlink:href="#SVGID_00000067209476219103138910000006827604186354530971_"  style="overflow:visible;"/>
		</clipPath>
		<g style="clip-path:url(#SVGID_00000163768317140017336000000014618843662661481913_);">
			<g>
				<g transform="translate(5.135551, 61.139544)">
					<g>
						<path class="st3" d="M337.2-129.6c5.89,0,10.49,2.15,13.79,6.42c3.32,4.29,4.99,10.62,4.99,19.03
							c0,9.76-2.17,20.34-6.52,31.73c-4.32,11.37-10.51,20.99-18.58,28.86c-8.08,7.88-17.33,11.81-27.77,11.81
							c-3.26,0-6.23-0.93-8.9-2.77c-2.64-1.88-4.55-4.45-5.73-7.71l-6.87,23.82c-0.49,1.45-0.74,2.89-0.74,4.35
							c0,3.13,1.31,5.35,3.95,6.67c2.67,1.31,6.47,1.98,11.42,1.98l-1.09,3.81l-3.81-0.15c-10.48-0.37-17.28-0.54-20.41-0.54
							c-3.24,0-9.9,0.22-20.01,0.69L252-5.42c4.32,0,7.45-0.78,9.39-2.32c1.91-1.56,3.47-4.5,4.69-8.85l33.75-120.43
							c-3.63,8.08-7.85,15.2-12.65,21.35c-4.82,6.13-10.76,12.55-17.84,19.27l-2.03-2.32c5.66-5.53,10.39-10.45,14.18-14.78
							c3.78-4.35,7.57-9.61,11.37-15.81c3.78-6.19,7.56-13.8,11.32-22.83l0.69-2.57c6.49-0.22,11.97-1.06,16.46-2.52L302.56-91.5
							c5.63-13.34,11.24-23.03,16.85-29.06C325.01-126.59,330.94-129.6,337.2-129.6z M302.9-35.91c6.39,0,12.47-4,18.24-12.01
							c5.76-8.01,10.43-17.72,13.99-29.16c3.56-11.43,5.34-21.77,5.34-31.03c0-5.16-0.77-9.07-2.27-11.71c-1.48-2.67-3.56-4-6.23-4
							c-3.36,0-7.3,2.76-11.81,8.25c-4.52,5.47-9.07,12.84-13.64,22.09c-4.58,9.27-8.62,19.37-12.11,30.34l-4.69,16.41
							c1.45,3.85,3.26,6.62,5.44,8.3C297.32-36.75,299.9-35.91,302.9-35.91z"/>
					</g>
				</g>
			</g>
			<g>
				<g transform="translate(36.58772, 61.139544)">
					<g>
						<path class="st3" d="M421.48-63.53h3.41l-4.5,13.19c-4.35,12.39-11.64,18.58-21.84,18.58c-1.95,0-3.76-0.43-5.44-1.28
							c-1.68-0.83-2.94-2-3.76-3.56c-0.73-1.7-1.09-3.58-1.09-5.63c0-3.13,0.84-8.06,2.52-14.78l5.58-22.58
							c-6.99,17.2-13.79,29.48-20.41,36.82c-6.62,7.35-13.84,11.02-21.65,11.02c-10.12,0-15.17-4.62-15.17-13.89
							c0-3.85,0.84-8.3,2.52-13.34l17.54-52.73c0.95-2.89,1.43-5.11,1.43-6.67c0-3.03-1.46-4.55-4.35-4.55
							c-2.41,0-4.73,1.37-6.97,4.1c-2.21,2.71-4.52,7.49-6.92,14.33l-2.37,6.67h-3.41l4.5-13.19c4.35-12.38,11.63-18.58,21.84-18.58
							c8.43,0,12.65,3.74,12.65,11.22c0,3.6-0.96,8.29-2.87,14.08l-17.15,51.59c-1.22,3.63-1.83,6.65-1.83,9.04
							c0,4.09,1.93,6.13,5.78,6.13c4.67,0,9.85-3.46,15.52-10.38c5.66-6.92,11.27-16.51,16.8-28.76
							c5.53-12.28,10.34-26.14,14.43-41.56l2.17-8.85c6.84-0.22,12.32-1.06,16.41-2.52L402.5-49.65c-0.83,3.14-1.24,5.49-1.24,7.07
							c0,2.77,1.25,4.15,3.76,4.15c2.67,0,5.1-1.41,7.31-4.25c2.24-2.83,4.5-7.56,6.77-14.18L421.48-63.53z"/>
					</g>
				</g>
			</g>
			<g>
				<g transform="translate(68.953186, 61.139544)">
					<g>
						<path class="st3" d="M419.82-49.65c-0.73,2.55-1.09,4.65-1.09,6.33c0,3.26,1.38,4.89,4.15,4.89c2.4,0,4.66-1.38,6.77-4.15
							c2.1-2.77,4.36-7.52,6.77-14.28l2.32-6.67h3.46l-4.55,13.19c-4.23,12.39-11.44,18.58-21.65,18.58
							c-8.3,0-12.45-3.9-12.45-11.71c0-3.03,0.84-7.54,2.52-13.54l29.4-97.7c0.62-2.14,0.94-3.82,0.94-5.04
							c0-2.4-0.94-4.15-2.82-5.24c-1.88-1.09-5.04-1.63-9.49-1.63l1.28-3.76c6.35-0.12,12.08-0.79,17.2-1.98
							c5.14-1.21,10.11-3.03,14.92-5.44L419.82-49.65z"/>
					</g>
				</g>
			</g>
			<g>
				<g transform="translate(84.764883, 61.139544)">
					<g>
						<path class="st3" d="M446.26-36.99c1.19,0.59,2.33,1.03,3.46,1.28c1.15,0.23,2.77,0.35,4.84,0.35c5.4,0,9.78-1.61,13.15-4.84
							c3.39-3.26,5.09-7.83,5.09-13.74c0-3.85-0.73-7.61-2.17-11.27c-1.46-3.68-3.85-7.87-7.22-12.55
							c-4.13-5.53-7.12-10.08-8.99-13.64c-1.85-3.56-2.77-7.73-2.77-12.55c0-4.94,1.26-9.35,3.81-13.24
							c2.53-3.92,5.93-6.97,10.18-9.14c4.27-2.17,8.94-3.26,13.99-3.26c6.25,0,11.49,1.19,15.71,3.56c4.21,2.35,6.33,6.4,6.33,12.16
							c0,2.17-0.69,4.29-2.08,6.33c-1.38,2.05-3.46,3.06-6.23,3.06c-2.05,0-3.76-0.72-5.14-2.17c-1.38-1.45-2.08-3.24-2.08-5.39
							c0-3.85,1.68-7.88,5.04-12.11c-2.27-1.45-5.29-2.17-9.04-2.17c-4.55,0-8.3,1.53-11.27,4.6c-2.94,3.06-4.4,7.25-4.4,12.55
							c0,3.14,0.52,5.82,1.58,8.06c1.09,2.21,3.08,5.49,5.98,9.83l3.26,4.69c3.58,5.53,6.25,10.3,8.01,14.28
							c1.74,3.95,2.62,8.04,2.62,12.26c0,5.41-1.42,10.28-4.25,14.63c-2.8,4.32-6.6,7.68-11.37,10.08
							c-4.74,2.4-9.88,3.61-15.42,3.61c-6.86,0-12.64-1.47-17.35-4.4c-4.67-2.97-7.02-7.46-7.02-13.49c0-2.04,0.58-3.9,1.73-5.58
							c1.12-1.68,2.88-2.52,5.29-2.52c2.67,0,4.66,1.09,5.98,3.26c1.31,2.17,1.98,4.88,1.98,8.1
							C447.5-44.33,447.08-41.21,446.26-36.99z"/>
					</g>
				</g>
			</g>
			<g>
				<g transform="translate(106.513115, 61.139544)">
					<g>
						<path class="st3" d="M557.74-117.69c0,9.76-5.49,18.31-16.46,25.65c-10.95,7.35-23.46,13.32-37.56,17.89
							c-1.32,6-1.98,11.84-1.98,17.49c0,11.56,4.15,17.35,12.45,17.35c10.34,0,19.62-6.03,27.82-18.09l2.87,1.48
							c-3.85,6.62-9.07,12.31-15.62,17.05c-6.56,4.74-13.44,7.12-20.66,7.12c-7.45,0-13.28-2.16-17.49-6.47
							c-4.23-4.35-6.33-10.67-6.33-18.98c0-9.15,2.67-19.47,8.01-30.94c5.36-11.49,12.61-21.27,21.74-29.35
							c9.15-8.07,19.09-12.11,29.8-12.11c3.85,0,7.04,1.03,9.59,3.06C556.47-124.49,557.74-121.55,557.74-117.69z M540.39-126.14
							c-3.85,0-8.18,2.26-12.95,6.77c-4.74,4.52-9.19,10.51-13.34,17.99c-4.15,7.45-7.3,15.37-9.44,23.77
							c11.43-3.95,19.59-7.81,24.51-11.56c4.47-3.46,7.93-7.68,10.38-12.7c2.47-5,3.71-10.39,3.71-16.16c0-3.26-0.25-5.41-0.74-6.47
							C542.05-125.6,541.34-126.14,540.39-126.14z"/>
					</g>
				</g>
			</g>
		</g>
	</g>
</g>
</svg>
